<svg width="54" height="93" viewBox="0 0 54 93" fill="none" xmlns="http://www.w3.org/2000/svg">
<g clip-path="url(#clip0_15_11)">
<path d="M27.1675 79.4386L39.4684 67.2281C40.4097 66.2993 41.1568 65.195 41.6665 63.9786C42.1763 62.7622 42.4388 61.4578 42.4388 60.1403C42.4388 58.8229 42.1763 57.5184 41.6665 56.3021C41.1568 55.0857 40.4097 53.9813 39.4684 53.0526L27.1675 40.9123C26.2432 40.0028 25.5096 38.9206 25.009 37.7282C24.5083 36.5358 24.2505 35.2567 24.2505 33.9649C24.2505 32.6731 24.5083 31.394 25.009 30.2016C25.5096 29.0092 26.2432 27.927 27.1675 27.0175L46.1844 45.8947C49.9877 49.6886 52.1228 54.8231 52.1228 60.1754C52.1228 65.5277 49.9877 70.6622 46.1844 74.4561L27.1675 93.3333C26.2432 92.4238 25.5096 91.3417 25.009 90.1492C24.5083 88.9568 24.2505 87.6778 24.2505 86.3859C24.2505 85.0941 24.5083 83.8151 25.009 82.6226C25.5096 81.4302 26.2432 80.348 27.1675 79.4386ZM27.0261 13.8947L14.7251 26.1053C13.7838 27.034 13.0367 28.1383 12.527 29.3547C12.0172 30.5711 11.7548 31.8755 11.7548 33.193C11.7548 34.5104 12.0172 35.8149 12.527 37.0313C13.0367 38.2477 13.7838 39.352 14.7251 40.2807L27.0261 52.4912C27.9503 53.4007 28.6839 54.4829 29.1846 55.6753C29.6852 56.8677 29.943 58.1467 29.943 59.4386C29.943 60.7304 29.6852 62.0095 29.1846 63.2019C28.6839 64.3943 27.9503 65.4765 27.0261 66.3859L7.93842 47.4386C4.13511 43.6447 2 38.5102 2 33.1579C2 27.8056 4.13511 22.6711 7.93842 18.8772L27.0261 0C28.8619 1.85323 29.8906 4.34827 29.8906 6.94737C29.8906 9.54646 28.8619 12.0415 27.0261 13.8947Z" fill="#12A885"/>
</g>
<defs>
<clipPath id="clip0_15_11">
<rect width="54" height="93" fill="white"/>
</clipPath>
</defs>
</svg>
